<svg id="Capa_1" data-name="Capa 1" xmlns="http://www.w3.org/2000/svg" viewBox="0 0 400 400"><defs><style>.cls-1{fill:#fff;stroke:#9e8771;stroke-linecap:round;stroke-linejoin:round;stroke-width:11px;}</style></defs><line class="cls-1" x1="269.75" y1="172.23" x2="308.85" y2="328.64"/><line class="cls-1" x1="308.85" y1="328.64" x2="289.06" y2="348.43"/><line class="cls-1" x1="210.86" y1="231.13" x2="289.06" y2="348.43"/><path class="cls-1" d="M339.74,102.24a29.68,29.68,0,0,0-42-42"/><line class="cls-1" x1="210.86" y1="231.13" x2="201.2" y2="240.78"/><line class="cls-1" x1="339.74" y1="102.24" x2="269.75" y2="172.23"/><line class="cls-1" x1="168.87" y1="189.14" x2="159.22" y2="198.8"/><line class="cls-1" x1="297.76" y1="60.26" x2="227.77" y2="130.25"/><line class="cls-1" x1="227.77" y1="130.25" x2="71.36" y2="91.15"/><line class="cls-1" x1="71.36" y1="91.15" x2="51.57" y2="110.94"/><line class="cls-1" x1="168.87" y1="189.14" x2="51.57" y2="110.94"/><path class="cls-1" d="M120.07,243.39c14.21-19.1,30.16-35.6,39.15-44.59"/><path class="cls-1" d="M91.15,308.85c0-7.86,1.94-16.19,5.2-24.65"/><path class="cls-1" d="M156.61,279.93c19.1-14.21,35.6-30.16,44.59-39.15"/><path class="cls-1" d="M91.15,308.85c7.86,0,16.19-1.94,24.65-5.2"/><line class="cls-1" x1="51.57" y1="269.27" x2="96.36" y2="284.2"/><line class="cls-1" x1="115.8" y1="303.64" x2="130.73" y2="348.43"/><line class="cls-1" x1="51.57" y1="229.69" x2="120.08" y2="243.39"/><line class="cls-1" x1="156.61" y1="279.92" x2="170.31" y2="348.43"/><line class="cls-1" x1="130.73" y1="348.43" x2="170.31" y2="348.43"/><line class="cls-1" x1="51.57" y1="229.69" x2="51.57" y2="269.27"/></svg>