<?xml version="1.0" encoding="utf-8"?>
<!-- Generator: Adobe Illustrator 25.4.1, SVG Export Plug-In . SVG Version: 6.00 Build 0)  -->
<svg version="1.1" id="Capa_1" xmlns="http://www.w3.org/2000/svg" xmlns:xlink="http://www.w3.org/1999/xlink" x="0px" y="0px"
	 viewBox="0 0 400 400" enable-background="new 0 0 400 400" xml:space="preserve">
<g>
	<g>
		<path fill="#A08872" d="M369.72,336.13h-11.27H95.61H84.34c-7.86,0-14.23,8.67-14.23,19.36h313.84
			C383.95,344.8,377.58,336.13,369.72,336.13z"/>
		<path fill="#A08872" d="M350.37,316.12H103.68c-6.79,0-12.3,8.96-12.3,20.01h271.29C362.67,325.08,357.17,316.12,350.37,316.12z"
			/>
		<g>
			<path fill="#A08872" d="M362.04,292.44c-4.29-55.82-61.3-100.21-131.61-101.6v11.85h-6.79v-11.85
				c-70.32,1.39-127.32,45.78-131.61,101.6c-2.21,1.71-3.58,4.12-3.58,6.77c0,2.66,1.37,5.06,3.58,6.77c2.12,1.64,5,2.65,8.18,2.65
				h253.65c3.18,0,6.06-1.01,8.18-2.65c2.21-1.71,3.58-4.12,3.58-6.77C365.62,296.55,364.24,294.15,362.04,292.44z"/>
			<path fill="#A08872" d="M230.42,190.84v-7.77h-6.79v7.77c1.13-0.02,2.26-0.03,3.4-0.03C228.16,190.8,229.29,190.82,230.42,190.84
				z"/>
			<path fill="#A08872" d="M230.42,202.69v-11.85c-1.13-0.02-2.26-0.03-3.4-0.03c-1.14,0-2.27,0.01-3.4,0.03v11.85H230.42z"/>
			<path fill="#A08872" d="M238.72,183.07c2.81,0,5.08-2.37,5.08-5.3v-3.39c0-2.93-2.27-5.3-5.08-5.3h-8.29v13.98H238.72z"/>
			<path fill="#A08872" d="M215.34,169.09c-2.81,0-5.08,2.37-5.08,5.3v3.39c0,2.93,2.27,5.3,5.08,5.3h8.29v-13.98H215.34z"/>
			<rect x="223.63" y="169.09" fill="#A08872" width="6.79" height="13.98"/>
		</g>
	</g>
	<path fill="#A08872" d="M16.05,121.8c0.28-0.41,14.85,12.63,15.39,13.17c10.05,10.08,18.29,21.55,31.14,28.48
		c14.88,8.03,31.91,9.89,48.45,7.48c14.04-2.05,27.14-10.86,40.07-16.49c7.01-3.05,13.99-7.12,21.35-9.19
		c8.07-2.27,14.16-2.39,22.49-2.61c15.66-0.4,31.31,1.25,46.94,0.1c3.66-0.27,7.51-0.62,10.55-2.68c5.82-3.94,8.66-13.32,4.88-19.24
		c-3.78-5.93-10-10.11-16.65-12.38c-17.84-6.1-37.63-5.16-56.45-4.15c-18.82,1.01-40.11,4.4-58.9,2.88c-1.45-0.12-1-2.49-0.15-3.67
		c13.3-1.38,26.6-2.76,39.9-4.14c22.37-2.32,45.18-4.62,67.17,0.07c8.55,1.82,16.28,4.96,23.11,10.41
		c6.84,5.45,12.6,13.53,12.56,22.27c-0.01,1.47-0.13,3.02,0.58,4.3c0.6,1.07,1.68,1.75,2.73,2.39c7.14,4.31,14.73,7.63,22.02,11.62
		c15.22,8.34,36.88,18.36,53.28,24.09c3.24,1.13,6.79,2.2,10.05,1.11c5.48-1.84,7.33-9.18,5.31-14.59
		c-2.02-5.41-6.68-9.33-11.08-13.07c-23.66-20.16-52.28-41.19-80.38-54.65c-28.94-13.87-60.15-23.01-91.97-27.12
		c-19.1-2.47-38.43-3.13-57.65-1.9c-10.12,0.65-18.78,0.49-28.02-4.05c-8.5-4.17-16.24-9.69-23.52-15.72
		C69.24,44.51,16.46,121.21,16.05,121.8z"/>
</g>
</svg>
