<?xml version="1.0" encoding="utf-8"?>
<!-- Generator: Adobe Illustrator 25.4.1, SVG Export Plug-In . SVG Version: 6.00 Build 0)  -->
<svg version="1.1" id="Capa_1" xmlns="http://www.w3.org/2000/svg" xmlns:xlink="http://www.w3.org/1999/xlink" x="0px" y="0px"
	 viewBox="0 0 400 400" enable-background="new 0 0 400 400" xml:space="preserve">
<g>
	<path fill="#A08872" stroke="#A08872" stroke-miterlimit="10" d="M352.68,272.3c-3.04-79.5-67.05-143.61-146.51-146.78v-10.74
		h18.11c10.42,0,18.9-8.48,18.9-18.9c0-10.42-8.48-18.9-18.9-18.9h-48.55c-10.42,0-18.9,8.48-18.9,18.9c0,10.42,8.48,18.9,18.9,18.9
		h18.12v10.74C114.37,128.69,50.34,192.8,47.31,272.3c-12.41,1.71-22.01,12.36-22.01,25.23c0,14.06,11.44,25.5,25.49,25.5H349.2
		c14.06,0,25.5-11.44,25.5-25.5C374.7,284.65,365.09,274,352.68,272.3z M169.14,95.87c0-3.63,2.95-6.58,6.58-6.58h48.55
		c3.63,0,6.58,2.95,6.58,6.58c0,3.63-2.95,6.57-6.58,6.57h-48.55C172.1,102.45,169.14,99.5,169.14,95.87z M200,137.68
		c75.42,0,137.15,59.72,140.38,134.35H59.62C62.85,197.4,124.58,137.68,200,137.68z M349.2,310.7H50.79
		c-7.26,0-13.17-5.91-13.17-13.17c0-7.27,5.91-13.17,13.17-13.17h2.53h293.35c0.03,0,0.07,0,0.09,0h2.45
		c7.27,0,13.17,5.91,13.17,13.17C362.38,304.8,356.47,310.7,349.2,310.7z"/>
	<path fill="#A08872" stroke="#A08872" stroke-miterlimit="10" d="M149.6,170.35c-25.53,11.95-46.07,32.64-57.83,58.26
		c-1.42,3.09-0.06,6.75,3.03,8.17c0.83,0.38,1.71,0.56,2.57,0.56c2.33,0,4.57-1.33,5.6-3.59c10.54-22.97,28.96-41.52,51.85-52.25
		c3.08-1.44,4.41-5.11,2.96-8.19C156.35,170.24,152.69,168.9,149.6,170.35z"/>
</g>
</svg>
