<?xml version="1.0" encoding="utf-8"?>
<!-- Generator: Adobe Illustrator 25.4.1, SVG Export Plug-In . SVG Version: 6.00 Build 0)  -->
<svg version="1.1" id="Capa_1" xmlns="http://www.w3.org/2000/svg" xmlns:xlink="http://www.w3.org/1999/xlink" x="0px" y="0px"
	 viewBox="0 0 512 512" style="enable-background:new 0 0 512 512;" xml:space="preserve">
<style type="text/css">
	.st0{fill:#CCCCCC;}
</style>
<g transform="translate(0.000000,512.000000) scale(0.100000,-0.100000)">
	<path class="st0" d="M2449,4995c-66-21-138-72-177-125c-18-25-159-301-314-615c-154-313-289-582-300-598c-11-15-33-34-48-42
		c-17-9-304-55-679-110c-415-60-668-101-701-114c-193-73-283-308-190-498c27-54,81-111,443-463c554-541,554-541,567-588
		c9-35-4-122-100-681c-60-353-110-664-110-691c0-244,261-425,486-338c33,12,312,156,620,318c536,283,561,295,614,295s78-12,614-295
		c308-162,587-306,620-318c85-33,196-28,279,13c120,59,207,195,207,322c0,29-50,341-110,694c-96,556-109,646-100,680
		c13,48,11,46,557,579c371,361,426,419,453,473c93,190,3,424-191,498c-34,13-279,53-701,115c-374,54-661,100-678,109
		c-15,8-37,27-48,42c-11,16-144,282-297,593s-291,584-306,606c-65,95-161,146-284,151C2524,5009,2478,5004,2449,4995z"/>
</g>
</svg>
