<?xml version="1.0" encoding="utf-8"?>
<!-- Generator: Adobe Illustrator 25.4.1, SVG Export Plug-In . SVG Version: 6.00 Build 0)  -->
<svg version="1.1" id="Capa_1" xmlns="http://www.w3.org/2000/svg" xmlns:xlink="http://www.w3.org/1999/xlink" x="0px" y="0px"
	 viewBox="0 0 400 400" enable-background="new 0 0 400 400" xml:space="preserve">
<g>
	
		<path fill="none" stroke="#A08872" stroke-width="15.0001" stroke-linecap="round" stroke-linejoin="round" stroke-miterlimit="22.9256" d="
		M177.1,55.44c0-13.29,10.78-24.06,24.06-24.06c13.29,0,24.06,10.78,24.06,24.06c0,6.65-2.32,13.06-7.04,17.01
		c-8.85,7.41-18.54,18.7-18.33,30.46l0.27,14.58"/>
	
		<path fill="none" stroke="#A08872" stroke-width="15.0001" stroke-linecap="round" stroke-linejoin="round" stroke-miterlimit="22.9256" d="
		M44.39,179.23l155.18-61.9l155.18,61.9c7.34,2.93,14.36,6.48,14.36,14.36v16.46c0,7.89-6.47,14.36-14.36,14.36H44.39
		c-7.89,0-14.36-6.46-14.36-14.36V193.6C30.02,185.7,37.05,182.16,44.39,179.23L44.39,179.23z M369.98,247.13v10.99
		c0,7.89-6.48,14.36-14.36,14.36H45.25c-7.89,0-14.36-6.46-14.36-14.36v-10.99 M369.98,295.2v10.99c0,7.89-6.48,14.36-14.36,14.36
		H45.25c-7.89,0-14.36-6.46-14.36-14.36V295.2 M369.98,343.26v10.99c0,7.89-6.48,14.36-14.36,14.36H45.25
		c-7.89,0-14.36-6.46-14.36-14.36v-10.99"/>
</g>
</svg>
