<?xml version="1.0" encoding="utf-8"?>
<!-- Generator: Adobe Illustrator 25.4.1, SVG Export Plug-In . SVG Version: 6.00 Build 0)  -->
<svg version="1.1" id="Capa_1" xmlns="http://www.w3.org/2000/svg" xmlns:xlink="http://www.w3.org/1999/xlink" x="0px" y="0px"
	 viewBox="0 0 400 400" enable-background="new 0 0 400 400" xml:space="preserve">
<path fill-rule="evenodd" clip-rule="evenodd" fill="#A08872" stroke="#A08872" stroke-width="0.5669" stroke-miterlimit="22.9256" d="
	M169.19,207.53c-25.87,25.09-36.28,37.97-49.97,44.07c-7.52,3.35-16.77,4.79-24.94,4.38c-46.73-2.36-69.05-61-36.11-94.5
	c8.02-8.16,17.52-14.49,28.99-16.13c15.14-2.17,34.62,1,43.04,9.4c30.58,30.5,96.74,102.99,126.27,121.29
	c12.57,7.79,26.36,12.74,42.13,12.65c33.34,1.72,82.78-18.44,91.8-80.55c5.29-69.61-64.18-115.47-124.51-88.94
	c-13.45,5.91-21.62,13.15-31.98,23.34c-9.1,8.95-17.64,18.4-26.8,27.3l23.18,22.72c29.34-31.71,50.81-60.15,96.28-41.87
	c29.79,14.49,43.47,57.55,14.59,88.15c-17.97,18.18-44.02,20.85-65.06,10.48c-21.53-10.61-90.06-86.03-111.25-107.15
	c-35.51-37.12-82.64-41.5-124.32-9.73c-18.67,16.58-29.19,36.43-30.94,59.78c-1.66,22.04,4.1,41.55,16.68,59.74
	c9.98,14.43,23.63,25.28,41.86,31.66c18.6,6.51,37.58,6.88,56.49,0.96c15.76-4.93,29.06-14.08,40.54-26.59l26.75-27.36
	L169.19,207.53L169.19,207.53z"/>
</svg>
