<?xml version="1.0" encoding="utf-8"?>
<!-- Generator: Adobe Illustrator 25.4.1, SVG Export Plug-In . SVG Version: 6.00 Build 0)  -->
<svg version="1.1" id="Capa_1" xmlns="http://www.w3.org/2000/svg" xmlns:xlink="http://www.w3.org/1999/xlink" x="0px" y="0px"
	 viewBox="0 0 400 400" enable-background="new 0 0 400 400" xml:space="preserve">
<g>
	
		<path fill="none" stroke="#A08872" stroke-width="14" stroke-linecap="round" stroke-linejoin="round" stroke-miterlimit="22.9256" d="
		M184.51,200.32H54.2c-9.81,0-17.23-8.05-17.85-17.85l-2.98-46.44c-0.62-9.8,8.03-17.85,17.85-17.85h297.56
		c9.82,0,18.47,8.05,17.85,17.85l-2.98,46.44c-0.62,9.79-8.04,17.85-17.85,17.85H218.39"/>
	
		<line fill="none" stroke="#A08872" stroke-width="14" stroke-linecap="round" stroke-linejoin="round" stroke-miterlimit="22.9256" x1="339.85" y1="204.98" x2="333.9" y2="349.62"/>
	
		<path fill="none" stroke="#A08872" stroke-width="14" stroke-linecap="round" stroke-linejoin="round" stroke-miterlimit="22.9256" d="
		M333.9,349.62c-0.62,9.74-8.08,17.85-17.85,17.85"/>
	
		<path fill="none" stroke="#A08872" stroke-width="14" stroke-linecap="round" stroke-linejoin="round" stroke-miterlimit="22.9256" d="
		M316.05,367.47H86.93c-9.7,0-17.25-8.06-17.85-17.85l-8.93-144.63"/>
	
		<line fill="none" stroke="#A08872" stroke-width="14" stroke-linecap="round" stroke-linejoin="round" stroke-miterlimit="22.9256" x1="216.4" y1="118.18" x2="216.4" y2="367.47"/>
	
		<path fill="none" stroke="#A08872" stroke-width="14" stroke-linecap="round" stroke-linejoin="round" stroke-miterlimit="22.9256" d="
		M203.56,109.24C126.5-69.31-26.44,121.45,203.56,109.24L203.56,109.24c179.39-4.73,66.22-131.23,6.4-20.74
		C208.12,91.9,204.92,105.3,203.56,109.24L203.56,109.24z"/>
	
		<line fill="none" stroke="#A08872" stroke-width="14" stroke-linecap="round" stroke-linejoin="round" stroke-miterlimit="22.9256" x1="183.6" y1="118.18" x2="183.6" y2="367.47"/>
</g>
</svg>
