<svg id="Capa_1" data-name="Capa 1" xmlns="http://www.w3.org/2000/svg" viewBox="0 0 400 400"><defs><style>.cls-1{fill:none;stroke:#9e8771;stroke-linecap:round;stroke-linejoin:round;stroke-width:11px;}</style></defs><path class="cls-1" d="M114.68,308.07l-43-43a81.1,81.1,0,0,1,0-114.75l43,43-14.34,14.34a20.27,20.27,0,0,0,0,28.69l43,43a20.26,20.26,0,0,0,28.68,0L186.4,265l43,43A81.09,81.09,0,0,1,114.68,308.07Z"/><circle class="cls-1" cx="260.85" cy="159.43" r="81.14"/><line class="cls-1" x1="260.85" y1="118.86" x2="260.85" y2="159.43"/><line class="cls-1" x1="291.28" y1="159.43" x2="260.85" y2="159.43"/><line class="cls-1" x1="189.86" y1="68.15" x2="169.58" y2="88.43"/><line class="cls-1" x1="331.85" y1="68.15" x2="352.13" y2="88.43"/></svg>