<?xml version="1.0" encoding="utf-8"?>
<!-- Generator: Adobe Illustrator 25.4.1, SVG Export Plug-In . SVG Version: 6.00 Build 0)  -->
<svg version="1.1" id="Capa_1" xmlns="http://www.w3.org/2000/svg" xmlns:xlink="http://www.w3.org/1999/xlink" x="0px" y="0px"
	 viewBox="0 0 400 400" enable-background="new 0 0 400 400" xml:space="preserve">
<g>
	<path fill-rule="evenodd" clip-rule="evenodd" fill="#A08872" stroke="#A08872" stroke-miterlimit="10" d="M194.78,326.52
		c69.69,0,126.52-56.83,126.52-126.52S264.47,73.48,194.78,73.48S68.26,130.31,68.26,200S125.09,326.52,194.78,326.52L194.78,326.52
		z"/>
	<path fill-rule="evenodd" clip-rule="evenodd" fill="#FFFFFF" stroke="#A08872" stroke-miterlimit="10" d="M194.78,288.17
		c48.57,0,88.17-39.6,88.17-88.17c0-48.55-39.6-88.17-88.17-88.17c-48.57,0-88.17,39.62-88.17,88.17
		C106.61,248.57,146.21,288.17,194.78,288.17L194.78,288.17z"/>
	<path fill-rule="evenodd" clip-rule="evenodd" fill="#A08872" stroke="#A08872" stroke-miterlimit="10" d="M194.78,278.87
		c43.44,0,78.87-35.43,78.87-78.87s-35.43-78.87-78.87-78.87c-43.44,0-78.87,35.43-78.87,78.87S151.35,278.87,194.78,278.87
		L194.78,278.87z"/>
	<path fill-rule="evenodd" clip-rule="evenodd" fill="#A08872" stroke="#A08872" stroke-miterlimit="10" d="M354.09,319.63
		c-6.16,0-11.36-4.13-12.97-9.78c-3.04-10.64,2.14-53.46,3.15-66.3c2.12-26.73,3.72-52.02,0.17-68.26
		c-0.37-1.73-1.41-3.04-2.99-3.84c-33.75-17.03-20.06-90.92,12.64-91.09c32.69,0.17,46.39,74.05,12.65,91.09
		c-1.58,0.8-2.62,2.11-3.01,3.84c-3.54,16.24-1.94,41.53,0.17,68.26c1.01,12.83,6.21,55.66,3.17,66.3
		C365.47,315.49,360.25,319.63,354.09,319.63L354.09,319.63z"/>
	<path fill-rule="evenodd" clip-rule="evenodd" fill="#A08872" stroke="#A08872" stroke-miterlimit="10" d="M26.29,170.93
		c-13.38-9.86-13.18-27.05-12.14-44.73c0.9-14.91,2.79-27.46,4.57-42.75c0.51-4.3,5.88-3.93,5.88,0.4v49.4
		c0,1.36,1.1,2.46,2.46,2.46h0.1c1.36,0,2.44-1.1,2.46-2.46l0.73-49.76c0.07-4.15,4.93-4.05,4.98-0.07L36,133.24
		c0.02,1.36,1.11,2.46,2.46,2.46h0.05h0.05c1.36,0,2.46-1.1,2.47-2.46l0.68-49.83c0.05-3.98,4.91-4.08,4.98,0.07l0.73,49.76
		c0.02,1.36,1.1,2.46,2.46,2.46h0.1c1.36,0,2.46-1.1,2.46-2.46v-49.4c0-4.33,5.36-4.7,5.88-0.4c1.78,15.29,3.67,27.84,4.57,42.75
		c1.05,17.68,1.25,34.87-12.14,44.73c-1.2,0.9-2.03,1.96-2.37,3.4c-3.82,16.21-2.21,41.97-0.05,69.22
		c1.01,12.83,6.21,55.66,3.17,66.3c-1.61,5.65-6.81,9.78-12.98,9.78c-6.16,0-11.36-4.13-12.97-9.78
		c-3.04-10.64,2.14-53.46,3.17-66.3c2.16-27.25,3.77-53.02-0.05-69.22C28.31,172.89,27.48,171.82,26.29,170.93L26.29,170.93z"/>
</g>
</svg>
