<svg id="Capa_1" data-name="Capa 1" xmlns="http://www.w3.org/2000/svg" viewBox="0 0 400 400"><defs><style>.cls-1{fill:none;stroke:#9e8771;stroke-linecap:round;stroke-linejoin:round;stroke-width:11px;}</style></defs><path class="cls-1" d="M144.44,191.11s-33.12,7.24-55.76-9.39S62.52,130.8,62.52,130.8a91.48,91.48,0,0,1,30.68-.52c0,8.69,1.46,18.08,5.8,26.7C111.7,182.27,144.44,191.11,144.44,191.11Z"/><path class="cls-1" d="M226.35,130.8s-3.54,34.26-26.15,50.92-55.76,9.39-55.76,9.39,32.77-8.84,45.47-34.13c4.3-8.62,5.76-18,5.76-26.7A91.37,91.37,0,0,1,226.35,130.8Z"/><path class="cls-1" d="M144.41,191.08l0,0S111.7,182.27,99,157c-4.34-8.62-5.76-18-5.8-26.7a96.13,96.13,0,0,1,5.26-30.72A93.09,93.09,0,0,1,126,113.26"/><path class="cls-1" d="M162.87,113.26a92.25,92.25,0,0,1,27.55-13.7,96.29,96.29,0,0,1,5.25,30.72c0,8.69-1.46,18.08-5.76,26.7-12.7,25.29-45.47,34.13-45.47,34.13l0,0"/><polyline class="cls-1" points="344.68 283.93 344.68 232.36 289.24 232.36 289.24 283.93"/><line class="cls-1" x1="316.96" y1="205.95" x2="316.96" y2="215.38"/><path class="cls-1" d="M335.83,311.67H297.25a21.6,21.6,0,0,1-21.42-21.76v-6h81.42v6A21.6,21.6,0,0,1,335.83,311.67Z"/><line class="cls-1" x1="15.01" y1="311.67" x2="384.99" y2="311.67"/><path class="cls-1" d="M169.67,139.74c0,.42,0,.84,0,1.22-.69,27.38-24.44,49.44-25.17,50.12l0,0,0,0c-.72-.69-23.79-22.77-25.15-50.09,0-.42,0-.83,0-1.25,0-9.68,3-18.75,6.81-26.48a94.5,94.5,0,0,1,18.4-24.93,95.21,95.21,0,0,1,18.43,24.93C166.73,121,169.67,130.06,169.67,139.74Z"/><path class="cls-1" d="M219.31,272H96.45a19.83,19.83,0,0,1,0-39.65h135a19.83,19.83,0,0,0,0-39.65h-135c-32.34,0-58.55,26.62-58.55,59.47s26.21,59.48,58.55,59.48H212c21.55,0,39-17.75,39-39.65s-17.48-39.65-39-39.65"/></svg>