<?xml version="1.0" encoding="utf-8"?>
<!-- Generator: Adobe Illustrator 25.4.1, SVG Export Plug-In . SVG Version: 6.00 Build 0)  -->
<svg version="1.1" id="Capa_1" xmlns="http://www.w3.org/2000/svg" xmlns:xlink="http://www.w3.org/1999/xlink" x="0px" y="0px"
	 viewBox="0 0 400 400" enable-background="new 0 0 400 400" xml:space="preserve">
<g>
	<path fill="none" stroke="#A08872" stroke-width="16" stroke-miterlimit="10" d="M189.93,102.03c1.85-4.37,6.11-7.2,10.82-7.2
		c4.71,0,8.96,2.83,10.82,7.2l25.98,61.2l65.75,6.01c4.69,0.43,8.67,3.64,10.13,8.15c1.46,4.52,0.1,9.47-3.44,12.6l-49.69,43.84
		l14.65,64.92c1.04,4.63-0.75,9.44-4.56,12.24c-3.81,2.79-8.9,3.02-12.95,0.59l-56.69-34.11l-56.69,34.11
		c-4.04,2.43-9.14,2.2-12.95-0.59c-3.81-2.79-5.6-7.6-4.56-12.24l14.65-64.92L91.52,190c-3.54-3.13-4.9-8.08-3.44-12.6
		c1.46-4.52,5.44-7.72,10.13-8.15l65.75-6.01L189.93,102.03z"/>
	<path fill="none" stroke="#A08872" stroke-width="16" stroke-miterlimit="10" d="M230.82,147.42l26.61-2.43l22.25-52.1
		c1.62-3.72,5.26-6.15,9.3-6.15c4.04,0,7.69,2.43,9.3,6.15l22.25,52.1l56.38,5.18c3.96,0.32,7.36,3.07,8.66,6.88
		c1.21,3.88,0.08,8.09-2.99,10.76l-42.55,37.37l12.54,55.25c0.89,3.96-0.65,8.09-3.88,10.44c-3.24,2.43-7.6,2.59-11.08,0.49
		l-48.62-29.04l-23.62,14.08"/>
	<path fill="none" stroke="#A08872" stroke-width="16" stroke-miterlimit="10" d="M135.93,257.19l-24.92-14.89L62.4,271.35
		c-3.48,2.1-7.85,1.94-11.08-0.49c-3.24-2.35-4.77-6.47-3.88-10.44l12.54-55.25L17.42,167.8c-3.07-2.67-4.21-6.88-2.99-10.76
		c1.29-3.8,4.69-6.55,8.66-6.88l56.38-5.18l22.25-52.1c1.62-3.72,5.26-6.15,9.3-6.15s7.69,2.43,9.3,6.15l22.25,52.1l28.07,2.59"/>
</g>
</svg>
