<?xml version="1.0" encoding="utf-8"?>
<!-- Generator: Adobe Illustrator 25.4.1, SVG Export Plug-In . SVG Version: 6.00 Build 0)  -->
<svg version="1.1" id="Capa_1" xmlns="http://www.w3.org/2000/svg" xmlns:xlink="http://www.w3.org/1999/xlink" x="0px" y="0px"
	 viewBox="0 0 400 400" enable-background="new 0 0 400 400" xml:space="preserve">
<g>
	<path fill="#FFFFFF" d="M288.79,351.35c-14.16,0-27.16-6.19-35.98-16.65c-8.82,10.47-21.82,16.65-35.98,16.65
		c-14.16,0-27.16-6.19-35.98-16.65c-8.82,10.47-21.82,16.65-35.98,16.65c-14.15,0-27.16-6.19-35.98-16.65
		c-8.82,10.47-21.82,16.65-35.98,16.65c-19.15-0.01-36.25-11.44-43.56-29.14c-1.48-3.57,0.22-7.67,3.8-9.14
		c3.57-1.48,7.67,0.22,9.14,3.8c5.14,12.44,17.16,20.48,30.62,20.48c12.69,0,24.08-7.07,29.7-18.46c1.18-2.39,3.61-3.9,6.27-3.9
		s5.1,1.51,6.28,3.9c5.63,11.38,17.01,18.46,29.71,18.46c12.69,0,24.08-7.07,29.7-18.46c1.18-2.39,3.61-3.9,6.27-3.9
		s5.1,1.51,6.28,3.9c5.63,11.38,17.01,18.46,29.71,18.46c12.69,0,24.07-7.07,29.7-18.46c1.18-2.39,3.61-3.9,6.28-3.9l0,0
		c2.66,0,5.1,1.51,6.28,3.9c5.63,11.38,17.01,18.46,29.71,18.46c13.46,0,25.48-8.04,30.62-20.48c1.48-3.57,5.57-5.27,9.14-3.8
		c3.57,1.48,5.27,5.57,3.8,9.14C325.03,339.91,307.93,351.35,288.79,351.35z M288.79,306.74c-14.15,0-27.16-6.18-35.98-16.65
		c-8.82,10.47-21.82,16.65-35.98,16.65c-14.15,0-27.16-6.18-35.98-16.65c-8.82,10.47-21.82,16.65-35.98,16.65
		c-14.15,0-27.16-6.18-35.98-16.65c-8.82,10.47-21.82,16.65-35.98,16.65c-19.15,0-36.25-11.44-43.56-29.13
		c-1.48-3.57,0.22-7.67,3.8-9.14c3.57-1.48,7.67,0.22,9.14,3.8c5.14,12.44,17.16,20.48,30.62,20.48c12.7,0,24.08-7.07,29.7-18.46
		c1.18-2.39,3.61-3.9,6.27-3.9s5.1,1.51,6.28,3.9c5.63,11.39,17.01,18.46,29.7,18.46c12.7,0,24.08-7.07,29.7-18.46
		c1.18-2.39,3.61-3.9,6.27-3.9s5.1,1.51,6.28,3.9c5.63,11.39,17.01,18.46,29.7,18.46c12.69,0,24.08-7.07,29.7-18.46
		c1.18-2.39,3.61-3.9,6.28-3.9l0,0c2.66,0,5.1,1.51,6.28,3.9c5.63,11.38,17.01,18.46,29.7,18.46c13.46,0,25.48-8.04,30.62-20.48
		c1.48-3.57,5.57-5.27,9.14-3.8c3.57,1.48,5.27,5.57,3.8,9.14C325.03,295.3,307.94,306.74,288.79,306.74z M278.47,273.26
		c-3.87,0-7-3.13-7-7v-29.44H158.93v29.44c0,3.87-3.13,7-7,7s-7-3.13-7-7V88.84c0-15.61,12.7-28.31,28.31-28.31
		c15.61,0,28.32,12.7,28.32,28.31c0,3.87-3.13,7-7,7s-7-3.13-7-7c0-7.89-6.42-14.31-14.32-14.31c-7.89,0-14.31,6.42-14.31,14.31
		v72.63h112.54V88.84c0-15.61,12.7-28.31,28.31-28.31c15.61,0,28.32,12.7,28.32,28.31c0,3.87-3.13,7-7,7s-7-3.13-7-7
		c0-7.89-6.42-14.31-14.32-14.31c-7.89,0-14.31,6.42-14.31,14.31v177.42C285.47,270.12,282.33,273.26,278.47,273.26z M158.93,222.82
		h112.54v-47.35H158.93V222.82z"/>
</g>
</svg>
