<?xml version="1.0" encoding="utf-8"?>
<!-- Generator: Adobe Illustrator 25.4.1, SVG Export Plug-In . SVG Version: 6.00 Build 0)  -->
<svg version="1.1" id="Capa_1" xmlns="http://www.w3.org/2000/svg" xmlns:xlink="http://www.w3.org/1999/xlink" x="0px" y="0px"
	 viewBox="0 0 400 400" enable-background="new 0 0 400 400" xml:space="preserve">
<g>
	<g>
		<path fill="#FFFFFF" d="M132.67,327.92c-0.12,0-0.25,0-0.37,0c-4.23-0.07-8.26-1.34-11.97-3.79c-4.7-3.08-8.92-8.02-12.54-14.68
			c-0.36-0.66-0.61-1.38-0.74-2.12c-0.08-0.42-0.33-1.22-1.22-1.8c-0.66-0.44-1.36-0.52-1.81-0.49c-0.11,0-0.21,0-0.32,0
			c-0.41-0.03-0.9,0.09-1.33,0.29c-0.94,0.44-1.32,1.18-1.47,1.58c-0.24,0.67-0.57,1.29-1,1.86c-5.48,7.28-12.25,13.06-19.07,16.26
			c-4.23,1.98-8.41,2.94-12.35,2.89c-4.23-0.07-8.26-1.34-11.97-3.79c-5.33-3.5-10.03-9.39-13.98-17.49
			c-1.69-3.48-0.25-7.67,3.22-9.36c3.48-1.69,7.67-0.25,9.36,3.22c2.79,5.73,5.94,9.85,9.09,11.93c1.48,0.98,2.96,1.46,4.51,1.49
			c1.79,0.02,3.9-0.5,6.18-1.56c4.58-2.15,9.28-6.15,13.29-11.3c1.63-3.7,4.52-6.65,8.24-8.4c2.29-1.08,4.73-1.62,7.24-1.62
			c0.01,0,0.02,0,0.04,0c3.51-0.08,6.9,0.87,9.82,2.79c3.47,2.29,5.98,5.79,7.03,9.75c2.38,4.18,4.89,7.16,7.47,8.85
			c1.48,0.98,2.96,1.46,4.51,1.49c1.82,0.04,3.94-0.51,6.18-1.56c4.59-2.15,9.29-6.15,13.3-11.3c1.63-3.69,4.52-6.65,8.24-8.4
			c2.3-1.08,4.73-1.62,7.25-1.62c0.01,0,0.02,0,0.04,0c3.53-0.08,6.9,0.87,9.82,2.79c3.47,2.28,5.98,5.79,7.02,9.75
			c2.38,4.18,4.89,7.15,7.48,8.85c1.49,0.98,2.96,1.46,4.51,1.49c1.84,0.04,3.94-0.51,6.18-1.56c4.58-2.15,9.28-6.15,13.3-11.3
			c1.63-3.7,4.52-6.65,8.24-8.4c2.31-1.08,4.76-1.6,7.28-1.62c3.53-0.09,6.9,0.87,9.82,2.79c3.48,2.29,5.98,5.79,7.03,9.76
			c2.37,4.18,4.89,7.15,7.47,8.85c1.49,0.98,2.96,1.46,4.51,1.49c1.79,0.03,3.94-0.51,6.18-1.56c4.59-2.15,9.29-6.15,13.3-11.3
			c1.63-3.69,4.52-6.65,8.24-8.4c2.3-1.08,4.73-1.62,7.25-1.62c0.01,0,0.02,0,0.04,0c3.49-0.09,6.9,0.87,9.82,2.79
			c3.47,2.29,5.98,5.79,7.03,9.75c2.38,4.18,4.89,7.16,7.48,8.85c1.49,0.98,2.96,1.46,4.51,1.49c1.82,0.04,3.94-0.51,6.18-1.56
			c5.34-2.5,10.89-7.59,15.23-13.95c2.18-3.19,6.54-4.01,9.73-1.84c3.19,2.18,4.02,6.53,1.84,9.73
			c-5.79,8.49-13.2,15.14-20.84,18.73c-4.22,1.98-8.35,2.96-12.35,2.89c-4.23-0.07-8.26-1.34-11.97-3.79
			c-4.7-3.08-8.92-8.02-12.54-14.68c-0.36-0.66-0.61-1.38-0.74-2.12c-0.08-0.43-0.33-1.23-1.21-1.8c-0.67-0.44-1.36-0.52-1.81-0.49
			c-0.11,0-0.21,0-0.32,0c-0.01,0-0.02,0-0.03,0c-0.45,0-0.88,0.1-1.3,0.29c-0.94,0.44-1.32,1.18-1.47,1.59
			c-0.24,0.66-0.57,1.29-1,1.85c-5.48,7.28-12.25,13.06-19.08,16.26c-4.22,1.98-8.35,2.94-12.35,2.89
			c-4.22-0.07-8.25-1.34-11.97-3.78c-4.7-3.08-8.92-8.03-12.54-14.69c-0.36-0.66-0.61-1.38-0.74-2.12
			c-0.08-0.43-0.33-1.23-1.22-1.81c-0.66-0.43-1.35-0.52-1.81-0.49c-0.11,0-0.21,0-0.32,0c-0.46-0.03-0.91,0.09-1.33,0.29
			c-0.94,0.44-1.32,1.18-1.46,1.58c-0.24,0.67-0.58,1.29-1,1.86c-5.48,7.28-12.26,13.06-19.08,16.26
			c-4.23,1.98-8.37,2.95-12.35,2.89c-4.22-0.07-8.25-1.34-11.97-3.78c-4.7-3.08-8.92-8.03-12.54-14.68
			c-0.36-0.66-0.61-1.38-0.75-2.12c-0.08-0.42-0.33-1.22-1.21-1.8c-0.67-0.44-1.35-0.52-1.81-0.5c-0.11,0-0.21,0-0.32,0
			c-0.43-0.04-0.91,0.09-1.33,0.29c-0.94,0.44-1.32,1.18-1.46,1.58c-0.24,0.67-0.57,1.29-1,1.86c-5.48,7.28-12.26,13.06-19.08,16.26
			C140.56,326.94,136.53,327.92,132.67,327.92z"/>
	</g>
	<g>
		<path fill="#FFFFFF" d="M369.3,375.42H30.7c-3.87,0-7-3.13-7-7s3.13-7,7-7H369.3c3.87,0,7,3.13,7,7S373.17,375.42,369.3,375.42z"
			/>
	</g>
	<g>
		<path fill="#FFFFFF" d="M351.19,370.36c-3.87,0-7-3.13-7-7v-74.96c0-8.93-7.75-16.47-16.92-16.47H72.73
			c-9.17,0-16.92,7.54-16.92,16.47v74.96c0,3.87-3.13,7-7,7s-7-3.13-7-7v-74.96c0-16.8,13.87-30.47,30.92-30.47h254.54
			c17.05,0,30.92,13.67,30.92,30.47v74.96C358.19,367.22,355.06,370.36,351.19,370.36z"/>
	</g>
	<g>
		<path fill="#FFFFFF" d="M280.15,168.7c-3.87,0-7-3.13-7-7V94.8c0-8.93-7.75-16.48-16.92-16.48H143.77
			c-9.17,0-16.92,7.55-16.92,16.48v66.9c0,3.87-3.13,7-7,7s-7-3.13-7-7V94.8c0-16.52,14.16-30.48,30.92-30.48h112.46
			c17.05,0,30.92,13.67,30.92,30.48v66.9C287.15,165.57,284.01,168.7,280.15,168.7z"/>
	</g>
	<g>
		<path fill="#FFFFFF" d="M319.84,267.71c-3.87,0-7-3.13-7-7v-72.46c0-8.93-7.75-16.48-16.92-16.48H104.09
			c-9.17,0-16.92,7.55-16.92,16.48v72.46c0,3.87-3.13,7-7,7s-7-3.13-7-7v-72.46c0-16.52,14.16-30.48,30.92-30.48h191.83
			c17.05,0,30.92,13.67,30.92,30.48v72.46C326.84,264.58,323.7,267.71,319.84,267.71z"/>
	</g>
	<g>
		<path fill="#FFFFFF" d="M229.19,232.94c-0.12,0-0.24,0-0.36,0c-4.23-0.07-8.26-1.34-11.98-3.79c-4.69-3.08-8.91-8.02-12.54-14.68
			c-0.36-0.66-0.61-1.38-0.75-2.13c-0.07-0.42-0.33-1.21-1.21-1.79c-0.67-0.44-1.36-0.51-1.81-0.5c-0.11,0.01-0.22,0-0.33,0
			c-0.01,0-0.02,0-0.03,0c-0.45,0-0.88,0.1-1.28,0.29c-0.96,0.45-1.34,1.19-1.48,1.59c-0.24,0.67-0.57,1.29-1,1.85
			c-5.48,7.28-12.25,13.06-19.08,16.26c-4.23,1.98-8.42,2.95-12.35,2.89c-4.23-0.07-8.26-1.34-11.98-3.79
			c-4.69-3.08-8.91-8.02-12.54-14.67c-0.36-0.67-0.62-1.39-0.75-2.13c-0.07-0.42-0.33-1.22-1.21-1.79c-0.67-0.44-1.35-0.51-1.81-0.5
			c-0.11,0-0.22,0.01-0.33,0c-0.45-0.02-0.9,0.09-1.32,0.29c-0.95,0.44-1.33,1.19-1.47,1.59c-0.24,0.67-0.57,1.29-1,1.85
			c-5.48,7.28-12.25,13.06-19.08,16.26c-4.23,1.98-8.39,2.93-12.35,2.89c-4.23-0.07-8.26-1.34-11.98-3.79
			c-5.33-3.5-10.03-9.38-13.98-17.48c-1.69-3.47-0.25-7.67,3.22-9.36c3.47-1.69,7.67-0.25,9.36,3.22c2.79,5.73,5.94,9.85,9.09,11.93
			c1.48,0.98,2.96,1.46,4.5,1.49c1.85,0.06,3.91-0.5,6.19-1.56c4.58-2.15,9.27-6.15,13.29-11.3c1.63-3.7,4.52-6.66,8.24-8.4
			c2.28-1.07,4.72-1.62,7.24-1.62c0.01,0,0.02,0,0.03,0c3.5-0.08,6.9,0.87,9.83,2.79c3.47,2.28,5.98,5.78,7.02,9.75
			c2.38,4.18,4.89,7.15,7.48,8.85c1.49,0.98,2.96,1.46,4.5,1.49c1.79,0.04,3.94-0.51,6.19-1.56c4.58-2.15,9.28-6.15,13.29-11.3
			c1.63-3.7,4.53-6.66,8.25-8.4c2.28-1.08,4.68-1.63,7.27-1.62c3.5-0.08,6.91,0.87,9.83,2.79c3.47,2.28,5.98,5.79,7.02,9.75
			c2.37,4.17,4.88,7.15,7.47,8.85c1.49,0.98,2.96,1.46,4.51,1.49c1.77,0.01,3.94-0.51,6.19-1.56c4.58-2.15,9.28-6.15,13.29-11.3
			c1.63-3.7,4.52-6.66,8.24-8.4c2.28-1.07,4.71-1.62,7.24-1.62c0.01,0,0.02,0,0.03,0c3.53-0.08,6.9,0.87,9.83,2.79
			c3.47,2.28,5.98,5.79,7.02,9.75c2.38,4.17,4.89,7.15,7.48,8.85c1.49,0.98,2.96,1.46,4.5,1.49c1.85,0.06,3.91-0.5,6.19-1.57
			c4.78-2.25,9.7-6.51,13.83-12c2.33-3.09,6.72-3.71,9.8-1.38c3.09,2.33,3.71,6.71,1.38,9.8c-5.48,7.28-12.26,13.06-19.08,16.26
			c-4.24,1.98-8.39,2.95-12.35,2.89c-4.23-0.07-8.26-1.34-11.98-3.79c-4.7-3.08-8.92-8.02-12.54-14.68
			c-0.36-0.66-0.61-1.38-0.74-2.12c-0.08-0.42-0.33-1.22-1.21-1.8c-0.67-0.44-1.35-0.51-1.8-0.5c-0.11,0-0.22,0.01-0.33,0
			c-0.47-0.03-0.9,0.09-1.32,0.29c-0.95,0.45-1.33,1.19-1.48,1.59c-0.24,0.67-0.57,1.29-1,1.86c-5.48,7.28-12.25,13.06-19.08,16.26
			C237.08,231.97,233.05,232.94,229.19,232.94z"/>
	</g>
	<g>
		<path fill="#FFFFFF" d="M197.47,135.42c-0.11,0-0.22,0-0.34,0c-4.02-0.07-7.84-1.28-11.36-3.59c-4.42-2.9-8.38-7.54-11.78-13.78
			c-0.36-0.67-0.62-1.39-0.75-2.13c-0.05-0.31-0.24-0.88-0.89-1.31c-0.51-0.33-1.02-0.39-1.36-0.38c-0.12,0-0.23,0-0.34,0
			c-0.32-0.02-0.67,0.07-0.99,0.22c-0.71,0.33-0.99,0.88-1.1,1.17c-0.24,0.67-0.57,1.29-1,1.86c-5.12,6.81-11.46,12.21-17.85,15.21
			c-3.98,1.87-7.92,2.8-11.66,2.72c-4.02-0.07-7.84-1.28-11.37-3.59c-5.01-3.3-9.43-8.82-13.13-16.4c-1.69-3.47-0.25-7.67,3.22-9.36
			c3.47-1.69,7.67-0.25,9.36,3.22c2.54,5.22,5.39,8.96,8.23,10.83c1.29,0.84,2.56,1.27,3.9,1.29c0.04,0,0.08,0,0.11,0
			c1.56,0,3.42-0.48,5.38-1.4c4.15-1.95,8.42-5.58,12.08-10.26c1.57-3.51,4.32-6.32,7.87-7.98c2.18-1.03,4.5-1.55,6.91-1.55
			c0.01,0,0.02,0,0.03,0c3.37-0.08,6.6,0.83,9.39,2.67c3.3,2.17,5.7,5.5,6.7,9.26c2.13,3.72,4.44,6.46,6.72,7.96
			c1.29,0.85,2.57,1.27,3.9,1.29c1.6,0.02,3.48-0.46,5.48-1.4c4.16-1.95,8.42-5.58,12.09-10.26c1.57-3.51,4.32-6.32,7.86-7.98
			c2.18-1.03,4.51-1.55,6.91-1.55c0.01,0,0.02,0,0.03,0c3.36-0.1,6.59,0.83,9.39,2.67c3.3,2.17,5.69,5.49,6.7,9.26
			c2.13,3.72,4.44,6.46,6.72,7.96c1.29,0.85,2.56,1.27,3.9,1.29c1.58,0.02,3.48-0.46,5.49-1.4c4.36-2.04,8.84-5.94,12.62-10.96
			c2.33-3.09,6.72-3.71,9.8-1.38c3.09,2.33,3.71,6.71,1.38,9.8c-5.2,6.91-11.38,12.17-17.86,15.21c-3.98,1.87-7.91,2.8-11.66,2.72
			c-4.02-0.07-7.84-1.28-11.36-3.59c-4.43-2.91-8.39-7.55-11.79-13.78c-0.36-0.67-0.61-1.38-0.75-2.13
			c-0.05-0.31-0.24-0.89-0.89-1.31c-0.51-0.33-1.01-0.39-1.36-0.38c-0.11,0-0.23,0-0.34,0c-0.37-0.04-0.68,0.07-1,0.22
			c-0.67,0.31-0.96,0.81-1.09,1.18c-0.24,0.66-0.57,1.29-1,1.85c-5.12,6.81-11.47,12.21-17.86,15.21
			C204.94,134.5,201.13,135.42,197.47,135.42z"/>
	</g>
	<g>
		<path fill="#FFFFFF" d="M200,78.33c-16.61,0-30.12-13.51-30.12-30.12S183.39,18.09,200,18.09s30.12,13.51,30.12,30.12
			S216.61,78.33,200,78.33z M200,32.09c-8.89,0-16.12,7.23-16.12,16.12s7.23,16.12,16.12,16.12s16.12-7.23,16.12-16.12
			S208.89,32.09,200,32.09z"/>
	</g>
</g>
</svg>
