<?xml version="1.0" encoding="utf-8"?>
<!-- Generator: Adobe Illustrator 25.4.1, SVG Export Plug-In . SVG Version: 6.00 Build 0)  -->
<svg version="1.1" id="Capa_1" xmlns="http://www.w3.org/2000/svg" xmlns:xlink="http://www.w3.org/1999/xlink" x="0px" y="0px"
	 viewBox="0 0 400 400" enable-background="new 0 0 400 400" xml:space="preserve">
<line fill="#FFFFFF" x1="-2099.79" y1="-126.11" x2="2500.21" y2="-126.11"/>
<g>
	<g>
		<g>
			<path fill="#383838" d="M172.76,300.41l40.25,0.21c0,0,0.28-55.56,0.51-100.62l29.87,0.15l3.88-40.23l-31.99-0.16l0.08-16.1
				c0.04-7.84,5.28-9.64,8.94-9.62c3.68,0.02,22.58,0.11,22.58,0.11l0.18-34.48l-31.09-0.29c-34.51-0.17-42.48,25.5-42.57,41.97
				l-0.09,18.19l-19.96-0.1l-0.21,40.25l20.12,0.1C173.04,245.4,172.76,300.41,172.76,300.41z"/>
		</g>
	</g>
</g>
</svg>
