<?xml version="1.0" encoding="utf-8"?>
<!-- Generator: Adobe Illustrator 25.4.1, SVG Export Plug-In . SVG Version: 6.00 Build 0)  -->
<svg version="1.1" id="Capa_1" xmlns="http://www.w3.org/2000/svg" xmlns:xlink="http://www.w3.org/1999/xlink" x="0px" y="0px"
	 viewBox="0 0 400 400" enable-background="new 0 0 400 400" xml:space="preserve">
<g>
	<g>
		<defs>
			<rect id="SVGID_1_" x="77.04" y="74.12" width="245.92" height="245.92"/>
		</defs>
		<clipPath id="SVGID_00000121984779462444809560000017727035703342641842_">
			<use xlink:href="#SVGID_1_"  overflow="visible"/>
		</clipPath>
		<path clip-path="url(#SVGID_00000121984779462444809560000017727035703342641842_)" fill="#e7e5e0" d="M244.29,91.6h-88.58
			c-33.74,0-61.19,27.45-61.19,61.19v88.58c0,33.74,27.45,61.19,61.19,61.19h88.58c33.74,0,61.19-27.45,61.19-61.19v-88.58
			C305.48,119.05,278.03,91.6,244.29,91.6L244.29,91.6z"/>
		<path clip-path="url(#SVGID_00000121984779462444809560000017727035703342641842_)" fill="#383838" d="M305.48,241.36
			c0,33.74-27.45,61.19-61.19,61.19h-88.58c-33.74,0-61.19-27.45-61.19-61.19v-88.58c0-33.74,27.45-61.19,61.19-61.19h88.58
			c33.74,0,61.19,27.45,61.19,61.19V241.36L305.48,241.36z M244.29,74.12h-88.58c-43.38,0-78.67,35.29-78.67,78.67v88.58
			c0,43.38,35.29,78.67,78.67,78.67h88.58c43.38,0,78.67-35.29,78.67-78.67v-88.58C322.96,109.41,287.67,74.12,244.29,74.12
			L244.29,74.12z"/>
	</g>
	<path fill="#383838" d="M200,239.03c-23.14,0-41.96-18.82-41.96-41.96c0-23.14,18.82-41.96,41.96-41.96
		c23.13,0,41.96,18.82,41.96,41.96C241.96,220.21,223.14,239.03,200,239.03L200,239.03z M200,134.14
		c-34.7,0-62.94,28.23-62.94,62.94c0,34.7,28.23,62.94,62.94,62.94s62.94-28.23,62.94-62.94C262.94,162.37,234.7,134.14,200,134.14
		L200,134.14z"/>
	<path fill="#383838" d="M278.09,134.14c0,6.92-5.61,12.53-12.53,12.53c-6.92,0-12.53-5.61-12.53-12.53
		c0-6.92,5.61-12.53,12.53-12.53C272.48,121.61,278.09,127.22,278.09,134.14L278.09,134.14z"/>
</g>
</svg>
