<svg xmlns="http://www.w3.org/2000/svg" viewBox="0 0 239.5 239.5"><defs><style>.cls-1{fill:#FFFFFF;}</style></defs><g id="Layer_2" data-name="Layer 2"><g id="Layer_2-2" data-name="Layer 2"><path class="cls-1" d="M119.75,0A119.75,119.75,0,1,0,239.5,119.75,119.89,119.89,0,0,0,119.75,0Zm0,223.53A103.78,103.78,0,1,1,223.53,119.75,103.89,103.89,0,0,1,119.75,223.53Z"/><path class="cls-1" d="M157.32,50.24a8,8,0,0,0-11.28,0L82.17,114.1a8,8,0,0,0,0,11.29L146,189.26A8,8,0,1,0,157.32,178L99.1,119.75l58.22-58.22A8,8,0,0,0,157.32,50.24Z"/></g></g></svg>