<?xml version="1.0" encoding="utf-8"?>
<!-- Generator: Adobe Illustrator 25.4.1, SVG Export Plug-In . SVG Version: 6.00 Build 0)  -->
<svg version="1.1" id="Capa_1" xmlns="http://www.w3.org/2000/svg" xmlns:xlink="http://www.w3.org/1999/xlink" x="0px" y="0px"
	 viewBox="0 0 400 400" enable-background="new 0 0 400 400" xml:space="preserve">
<g>
	<g>
		<path fill="#FFFFFF" d="M342.63,349.49c-13.88,0-26.78-6.52-35.66-17.55c-8.88,11.03-21.77,17.55-35.66,17.55
			s-26.78-6.52-35.66-17.55c-8.88,11.03-21.78,17.55-35.66,17.55c-13.88,0-26.78-6.52-35.66-17.55
			c-8.88,11.03-21.78,17.55-35.66,17.55c-13.88,0-26.78-6.52-35.66-17.55c-8.88,11.03-21.78,17.55-35.66,17.55c-3.87,0-7-3.13-7-7
			s3.13-7,7-7c12.25,0,23.5-7.53,29.36-19.64c1.17-2.42,3.62-3.95,6.3-3.95c0,0,0,0,0,0c2.68,0,5.13,1.54,6.3,3.95
			c5.85,12.11,17.1,19.64,29.35,19.64c12.25,0,23.5-7.53,29.36-19.64c1.17-2.42,3.62-3.95,6.3-3.95s5.13,1.54,6.3,3.95
			c5.85,12.11,17.1,19.64,29.35,19.64c12.25,0,23.5-7.53,29.36-19.64c1.17-2.42,3.62-3.95,6.3-3.95s5.13,1.54,6.3,3.95
			c5.85,12.11,17.1,19.64,29.36,19.64c12.25,0,23.5-7.53,29.35-19.64c1.17-2.42,3.62-3.95,6.3-3.95c2.69,0,5.13,1.54,6.3,3.95
			c5.86,12.11,17.11,19.64,29.36,19.64c3.87,0,7,3.13,7,7S346.5,349.49,342.63,349.49z"/>
	</g>
	<g>
		<path fill="#FFFFFF" d="M230.35,278.83c-0.36,0-0.73-0.03-1.1-0.09c-3.82-0.6-6.43-4.18-5.83-8
			c6.32-40.22,22.71-70.49,38.74-93.47c-15.07,4.07-31.18,13.28-38.22,25.12c-1.43,2.41-4.17,3.74-6.95,3.36
			c-2.78-0.37-5.07-2.37-5.82-5.07c-2.97-10.74-2.54-28.33,4.09-39.76c11.65-20.05,39.87-26.73,58.92-20.38
			c3.67,1.22,5.65,5.18,4.43,8.85c-1.22,3.67-5.19,5.65-8.85,4.43c-16.39-5.46-35.9,2.96-42.39,14.13
			c-2.09,3.59-3.3,8.58-3.76,13.68c15.17-13.01,37.37-20.64,54.04-20.64c0,0,0,0,0,0c2.67,0,5.1,1.51,6.28,3.91
			c1.18,2.39,0.9,5.25-0.73,7.36c-18.73,24.37-38.84,55.38-45.96,100.65C236.71,276.36,233.73,278.83,230.35,278.83z"/>
	</g>
	<g>
		<path fill="#FFFFFF" d="M339.16,186.45c-0.67,0-1.35-0.1-2.02-0.3c-3.7-1.11-5.8-5.02-4.69-8.72c6.5-21.64,2.6-36.5-10.71-40.75
			c-10.53-3.36-22.14,1.38-24.26,7.63c-1.04,3.06-4.04,5.01-7.25,4.72c-3.22-0.28-5.82-2.73-6.3-5.92
			c-1.17-7.7-2.32-12.34-12.36-18.17c-7.67-4.45-23.21-6.35-34.94-1.64c-6.47,2.6-10.54,6.65-12.09,12.05
			c-1.07,3.71-4.94,5.86-8.67,4.79c-3.71-1.07-5.86-4.95-4.79-8.67c2.77-9.62,9.8-16.94,20.33-21.16
			c14.68-5.9,34.53-4.83,47.19,2.52c8.11,4.71,12.6,9.65,15.26,14.74c8.5-5.84,20.77-7.86,32.14-4.23
			c9.51,3.04,16.81,9.81,20.54,19.05c4.21,10.4,3.97,23.54-0.69,39.06C344.95,184.5,342.17,186.45,339.16,186.45z"/>
	</g>
	<g>
		<path fill="#FFFFFF" d="M304.39,227.3c-3.29,0-6.22-2.33-6.87-5.68c-0.73-3.8,1.75-7.47,5.55-8.2
			c14.57-2.8,24.14-11.57,28.45-26.04c2.04-6.83-0.62-12.45-3.2-15.96c-4.81-6.54-13.55-11.36-20.78-11.46
			c-3.87-0.05-6.96-3.23-6.91-7.09c0.05-3.83,3.17-6.91,7-6.91c0.03,0,0.06,0,0.09,0c11.63,0.15,24.44,7.05,31.88,17.16
			c6.31,8.58,8.21,18.61,5.34,28.25c-5.84,19.6-19.4,31.97-39.22,35.79C305.28,227.26,304.83,227.3,304.39,227.3z"/>
	</g>
	<g>
		<path fill="#FFFFFF" d="M283.84,239.26c-1.85,0-3.65-0.74-4.97-2.08c-1.63-1.64-2.34-3.99-1.9-6.26
			c4.34-22.39,4.42-42.96,0.2-55.03c-1.28-3.65,0.65-7.64,4.3-8.92s7.64,0.65,8.92,4.3c4.23,12.12,5.02,29.95,2.33,50.11
			c2.35-1.51,4.48-3.39,6.33-5.6c4.86-5.77,7.17-13.08,6.53-20.6s-4.18-14.32-9.95-19.17c-0.59-0.5-1.17-0.95-1.76-1.37
			c-3.15-2.24-3.89-6.61-1.65-9.76c2.24-3.15,6.61-3.89,9.76-1.65c0.92,0.65,1.83,1.36,2.69,2.1c8.6,7.23,13.89,17.42,14.86,28.66
			c0.97,11.24-2.5,22.18-9.76,30.81c-6.3,7.48-15.06,12.58-24.66,14.34C284.68,239.22,284.26,239.26,283.84,239.26z"/>
	</g>
	<g>
		<path fill="#FFFFFF" d="M191.25,272.19c-3.79,0-6.9-3.02-7-6.83c-0.82-33.37-5.86-70.92-35.74-119.7
			c-11.95,17-21.37,40.38-14.46,59.75c0.94,2.64,0.22,5.59-1.84,7.49c-2.06,1.9-5.06,2.39-7.62,1.25
			c-12.25-5.5-28.18-20.03-33.63-34.84c-8.94-24.29-0.13-49.85,21.92-63.61c3.28-2.05,7.6-1.05,9.64,2.23
			c2.05,3.28,1.05,7.6-2.23,9.64c-16.27,10.16-22.78,29-16.19,46.89c2.34,6.37,7.72,13.07,13.67,18.38
			c-0.21-8.47,1.3-17.51,4.51-26.79c4.42-12.78,12.04-25.96,21.46-37.11c1.43-1.69,3.56-2.61,5.78-2.47
			c2.21,0.14,4.22,1.31,5.43,3.16c36.51,55.82,42.39,98.05,43.31,135.37c0.1,3.87-2.96,7.08-6.83,7.17
			C191.37,272.19,191.31,272.19,191.25,272.19z"/>
	</g>
	<g>
		<path fill="#FFFFFF" d="M93.73,178.88c-2.21,0-4.37-1.04-5.73-2.98c-0.72-0.91-3.92-4.14-6.5-6.74l-2.44-2.47
			c-12.2-12.35-17.29-27.96-13.98-42.83c3.24-14.52,14.07-26.15,29.73-31.92c10.04-3.7,20.81-3.86,30.75-0.62
			c3.84-14.32,17.79-28.25,35.69-34.07c23.91-7.78,45.5,1.49,57.75,24.79c1.8,3.42,0.48,7.65-2.94,9.45
			c-3.42,1.8-7.65,0.48-9.45-2.94c-12.24-23.28-30.96-21.26-41.03-17.99c-15.67,5.09-28.51,19.49-26.95,30.2
			c0.39,2.68-0.8,5.34-3.05,6.84c-2.25,1.5-5.17,1.57-7.48,0.17c-8.64-5.19-19.02-6.17-28.45-2.69
			c-11.1,4.09-18.72,12.04-20.9,21.83c-2.26,10.14,1.48,21.05,10.27,29.95l2.42,2.45c5.19,5.23,7.09,7.19,8.07,8.64
			c2.17,3.2,1.34,7.55-1.86,9.72C96.46,178.48,95.09,178.88,93.73,178.88z"/>
	</g>
	<g>
		<path fill="#FFFFFF" d="M234.55,121.86c-3.37,0-6.33-2.44-6.9-5.87c-2.94-17.88-17.57-23.79-23.72-25.5
			c-13.35-3.71-27.48-0.14-35.16,8.88c-2.51,2.95-6.92,3.3-9.87,0.8c-2.94-2.51-3.3-6.92-0.8-9.87
			c11.14-13.1,31.06-18.44,49.57-13.3c18.21,5.06,30.84,18.79,33.79,36.71c0.63,3.81-1.96,7.42-5.77,8.04
			C235.31,121.83,234.93,121.86,234.55,121.86z"/>
	</g>
	<g>
		<path fill="#FFFFFF" d="M222.92,168.99c-0.26,0-0.52-0.01-0.78-0.04c-3.84-0.42-6.61-3.88-6.19-7.73
			c1.53-13.83-2.51-25.52-11.37-32.92c-9.37-7.82-22.96-10.1-36.35-6.11c-3.71,1.11-7.6-1-8.71-4.71c-1.1-3.71,1-7.6,4.71-8.71
			c17.9-5.34,36.34-2.06,49.32,8.78c12.58,10.5,18.37,26.55,16.31,45.2C229.47,166.34,226.44,168.99,222.92,168.99z"/>
	</g>
	<g>
		<path fill="#FFFFFF" d="M212,186.55c-3,0-5.77-1.94-6.69-4.96c-7.42-24.33-34.8-39.35-56.79-41.14c-3.85-0.31-6.72-3.69-6.41-7.54
			c0.31-3.85,3.7-6.72,7.54-6.41c14.58,1.18,29.45,6.63,41.88,15.33c13.55,9.49,22.95,21.82,27.17,35.68
			c1.13,3.7-0.96,7.61-4.65,8.74C213.37,186.45,212.68,186.55,212,186.55z"/>
	</g>
	<g>
		<path fill="#FFFFFF" d="M281.69,315.48c-1.5,0-3-0.48-4.28-1.46c-2.83-2.19-5.87-5.45-9.09-8.9
			c-3.76-4.03-10.76-11.54-13.95-12.08c-4.99-0.85-8.28-1.34-10.46-1.66c-4.96-0.74-6.82-1.02-9.54-3.68
			c-0.77-0.75-2.8-2.74-11.88-7.71c-11.56-6.33-36.6-5.93-59.55,0.95c-21.13,6.34-36.83,16.74-43.08,28.53
			c-1.81,3.42-6.05,4.72-9.46,2.91c-3.42-1.81-4.72-6.05-2.91-9.46c4.69-8.87,17.62-25.25,51.43-35.39
			c27.04-8.11,55.29-8.04,70.29,0.18c9.58,5.25,12.79,7.93,14.41,9.46c0.61,0.1,1.47,0.23,2.35,0.36c2.24,0.33,5.61,0.84,10.74,1.71
			c7.85,1.33,14.97,8.96,21.84,16.34c2.82,3.03,5.49,5.89,7.42,7.38c3.06,2.37,3.62,6.76,1.25,9.82
			C285.85,314.55,283.78,315.48,281.69,315.48z"/>
	</g>
</g>
</svg>
