<?xml version="1.0" encoding="utf-8"?>
<!-- Generator: Adobe Illustrator 25.4.1, SVG Export Plug-In . SVG Version: 6.00 Build 0)  -->
<svg version="1.1" id="Capa_1" xmlns="http://www.w3.org/2000/svg" xmlns:xlink="http://www.w3.org/1999/xlink" x="0px" y="0px"
	 viewBox="0 0 400 400" enable-background="new 0 0 400 400" xml:space="preserve">
<g>
	<g>
		<path fill="#FFFFFF" d="M298.87,254.06H83.22c-0.08,0-0.16,0-0.24,0c-20.56-0.71-64.09-10.9-67.43-37.87
			c-0.25-1.99,0.37-3.99,1.7-5.5c1.33-1.5,3.24-2.37,5.25-2.37h337.1c2.01,0,3.92,0.86,5.25,2.36c1.33,1.5,1.95,3.5,1.7,5.5
			c-3.34,26.97-46.88,37.16-67.43,37.87C299.03,254.06,298.95,254.06,298.87,254.06z M83.34,240.06h215.4
			c15.06-0.55,40.39-6.77,50.07-17.73H33.28C42.96,233.29,68.28,239.51,83.34,240.06z"/>
	</g>
	<g>
		<path fill="#FFFFFF" d="M46.19,218.43c-3.77,0-6.88-2.99-6.99-6.78l-0.01-0.33c-0.02-0.71-0.04-1.44-0.05-2.14l-0.01-0.99
			c0-0.43-0.01-0.87-0.01-1.3c0-44.32,16.52-81.58,47.78-107.76c27.53-23.06,64.51-35.76,104.11-35.76
			c39.61,0,76.6,12.7,104.15,35.77c31.28,26.18,47.81,63.45,47.81,107.75c0,0.42,0,0.85-0.01,1.27c0,0.34-0.01,0.68-0.01,1.02
			c0,0.68-0.02,1.36-0.04,2.04l-0.01,0.43c-0.12,3.86-3.32,6.91-7.21,6.79c-3.86-0.12-6.9-3.34-6.79-7.21l0.01-0.45
			c0.02-0.54,0.04-1.09,0.04-1.63c0-0.38,0-0.77,0.01-1.17c0-0.36,0.01-0.73,0.01-1.09c0-40.03-14.8-73.58-42.79-97.02
			c-25.04-20.96-58.83-32.5-95.16-32.5c-66.41,0-137.89,40.53-137.89,129.52c0,0.38,0,0.76,0.01,1.14c0,0.38,0.01,0.75,0.01,1.12
			c0,0.57,0.02,1.15,0.04,1.73l0.01,0.34c0.12,3.86-2.92,7.09-6.78,7.21C46.34,218.43,46.26,218.43,46.19,218.43z"/>
	</g>
	<g>
		<path fill="#FFFFFF" d="M182.27,381.91c-3.04,0-5.83-1.99-6.72-5.06c-1.07-3.71,1.07-7.59,4.78-8.67l102.44-29.64
			c3.71-1.07,7.59,1.07,8.67,4.78c1.07,3.71-1.07,7.59-4.78,8.67l-102.44,29.64C183.57,381.82,182.91,381.91,182.27,381.91z"/>
	</g>
	<g>
		<path fill="#FFFFFF" d="M253.81,350.85c-0.74,0-1.49-0.12-2.23-0.37c-3.66-1.23-5.63-5.2-4.4-8.87c0.96-2.84,1.68-5.64,2.46-8.61
			c2.58-9.94,5.51-21.21,18.17-41.46c2.54-4.07,6.91-9.17,11.53-14.57c4.89-5.72,10.98-12.83,12.4-16.19
			c0.22-0.52,0.5-1.02,0.84-1.47c0.53-0.71,0.92-1.3,1.19-1.78c-5.87-0.74-20.39,3.24-25.21,10.02c-1.38,1.95-2.55,3.83-3.68,5.65
			c-3.3,5.32-6.72,10.83-13.94,14.65c-22.48,11.91-31.71,0.43-42.39-12.87c-3.72-4.63-7.94-9.89-13.47-15.51
			c-3.67-3.73-9.28-5.49-15.03-4.68c-3.51,0.49-5.64,1.74-6.5,2.51c0.07,0.07,0.14,0.15,0.24,0.24c2.77,2.7,2.82,7.13,0.12,9.9
			s-7.13,2.82-9.9,0.12c-5.47-5.34-5.07-10.76-4.35-13.51c1.49-5.69,6.97-10.31,14.65-12.36c8.78-2.34,21.48-1.47,30.76,7.96
			c6.01,6.12,10.66,11.9,14.4,16.55c10.73,13.36,12.67,15.77,24.92,9.27c3.88-2.06,5.66-4.92,8.6-9.67
			c1.18-1.91,2.53-4.07,4.16-6.37c7.44-10.48,26.2-16.97,37.99-15.76c8.21,0.84,11.28,5.16,12.38,7.67
			c2.01,4.58,0.92,9.85-3.25,15.69c-2.5,5.26-8.24,11.96-14.29,19.04c-4.08,4.77-8.31,9.7-10.29,12.88
			c-11.52,18.43-14.05,28.16-16.5,37.56c-0.8,3.07-1.62,6.24-2.74,9.55C259.46,349,256.73,350.85,253.81,350.85z"/>
	</g>
	<g>
		<path fill="#FFFFFF" d="M188.96,290.19c-1.83,0-3.65-0.71-5.02-2.12l-28.05-28.86c-4.87-5.01-9.96-4.32-11.92-3.79
			c-2.79,0.75-4.62,2.47-4.93,3.71c-0.22,0.87,0.64,1.89,1.4,2.6c2.82,2.64,2.97,7.07,0.34,9.89c-2.64,2.82-7.07,2.98-9.89,0.34
			c-4.88-4.56-6.85-10.47-5.42-16.21c1.62-6.5,7.32-11.8,14.87-13.84c9.06-2.44,18.63,0.38,25.61,7.55l28.05,28.86
			c2.69,2.77,2.63,7.2-0.14,9.9C192.48,289.53,190.72,290.19,188.96,290.19z"/>
	</g>
	<g>
		<path fill="#FFFFFF" d="M201.86,376.24c-0.1,0-0.2,0-0.3-0.01c-3.86-0.16-6.86-3.43-6.7-7.29c0.2-4.6-3.93-18.69-46.39-49.98
			c-1.34-0.99-2.16-1.59-2.67-2l-40.16-32.27c-9.78-7.86-14.46-17.47-12.83-26.36c1.21-6.6,5.76-11.79,12.18-13.88
			c8.05-2.62,17.43,0.16,25.09,7.44l10.24,9.72l30.49,25.45c2.97,2.48,3.37,6.89,0.89,9.86c-2.48,2.97-6.89,3.37-9.86,0.89
			l-30.66-25.6c-0.12-0.1-0.23-0.2-0.34-0.3l-10.4-9.88c-4.56-4.34-8.73-5.05-11.11-4.28c-1.06,0.35-2.39,1.16-2.75,3.09
			c-0.51,2.8,1.28,7.66,7.83,12.93l40.16,32.27c0.36,0.29,1.13,0.85,2.21,1.65c36.18,26.67,52.73,46.32,52.07,61.85
			C208.69,373.3,205.59,376.24,201.86,376.24z"/>
	</g>
	<g>
		<path fill="#FFFFFF" d="M305.52,189.93c-3.29,0-6.22-2.33-6.87-5.68c-4.89-25.42-18.61-46.57-39.66-61.16
			c-19.2-13.3-43.85-20.63-69.43-20.63c-3.87,0-7-3.14-7-7c0-3.87,3.13-7,7-7h0c52.22,0.01,110.45,28.81,122.84,93.14
			c0.73,3.8-1.75,7.47-5.55,8.2C306.4,189.88,305.95,189.93,305.52,189.93z"/>
	</g>
	<g>
		<path fill="#FFFFFF" d="M191.04,68.63c-11.41,0-20.7-9.6-20.7-21.4s9.28-21.4,20.7-21.4s20.7,9.6,20.7,21.4
			S202.46,68.63,191.04,68.63z M191.04,39.82c-3.69,0-6.7,3.32-6.7,7.4s3,7.4,6.7,7.4s6.7-3.32,6.7-7.4S194.74,39.82,191.04,39.82z"
			/>
	</g>
</g>
</svg>
