<svg xmlns="http://www.w3.org/2000/svg" viewBox="0 0 239.5 239.5"><defs><style>.cls-1{fill:#FFFFFF;}</style></defs><g id="Layer_2" data-name="Layer 2"><g id="Layer_2-2" data-name="Layer 2"><path class="cls-1" d="M0,119.75A119.75,119.75,0,1,0,119.75,0,119.89,119.89,0,0,0,0,119.75Zm16,0A103.78,103.78,0,1,1,119.75,223.53,103.89,103.89,0,0,1,16,119.75Z"/><path class="cls-1" d="M82.17,50.24a8,8,0,0,1,11.29,0l63.86,63.86a8,8,0,0,1,0,11.29L93.46,189.26A8,8,0,1,1,82.17,178l58.22-58.22L82.17,61.53A8,8,0,0,1,82.17,50.24Z"/></g></g></svg>