<?xml version="1.0" encoding="utf-8"?>
<!-- Generator: Adobe Illustrator 25.4.1, SVG Export Plug-In . SVG Version: 6.00 Build 0)  -->
<svg version="1.1" id="Capa_1" xmlns="http://www.w3.org/2000/svg" xmlns:xlink="http://www.w3.org/1999/xlink" x="0px" y="0px"
	 viewBox="0 0 400 400" enable-background="new 0 0 400 400" xml:space="preserve">
<g>
	<path fill="#FFFFFF" d="M283.86,355.05c-4.47,0-8.96-1.2-12.96-3.61l-63.87-38.45c-3.52-2.12-7.91-2.13-11.44-0.03l-64.08,38.1
		c-8.67,5.16-19.54,4.64-27.68-1.32c-8.14-5.95-11.93-16.15-9.66-25.98l16.81-72.68c0.93-4.01-0.42-8.19-3.51-10.91l-56.02-49.21
		c-7.58-6.66-10.45-17.16-7.3-26.74c3.14-9.59,11.66-16.35,21.72-17.22l74.26-6.46c4.09-0.36,7.65-2.92,9.27-6.7l29.46-68.51
		c3.98-9.25,13.04-15.21,23.1-15.21c0.02,0,0.04,0,0.07,0c10.09,0.03,19.15,6.05,23.08,15.34l29.09,68.67
		c1.6,3.78,5.14,6.37,9.23,6.75l74.23,6.87c10.05,0.93,18.53,7.74,21.62,17.35c3.09,9.6,0.17,20.08-7.45,26.7l-56.29,48.91
		c-3.1,2.69-4.47,6.86-3.56,10.86l16.42,72.78c2.22,9.84-1.62,20.02-9.8,25.93C294.2,353.45,289.03,355.05,283.86,355.05z
		 M201.28,297.39c4.49,0,8.97,1.2,12.97,3.61l63.87,38.45c3.83,2.31,8.64,2.1,12.27-0.52c3.62-2.62,5.33-7.14,4.34-11.5
		l-16.42-72.79c-2.04-9.04,1.04-18.43,8.04-24.51l56.29-48.91c3.38-2.93,4.67-7.58,3.3-11.84c-1.37-4.26-5.13-7.28-9.58-7.69
		l-74.22-6.87c-9.23-0.85-17.22-6.69-20.83-15.23l-29.09-68.67c-1.74-4.12-5.76-6.78-10.23-6.8c-0.01,0-0.02,0-0.03,0
		c-4.46,0-8.47,2.64-10.24,6.74l-29.46,68.51c-3.67,8.52-11.68,14.31-20.92,15.12l-74.26,6.46c-4.46,0.39-8.23,3.38-9.62,7.64
		c-1.4,4.26-0.13,8.91,3.24,11.86l56.02,49.21c6.97,6.12,10,15.54,7.91,24.58l-16.81,72.67c-1.01,4.36,0.67,8.89,4.28,11.53
		c3.61,2.64,8.42,2.87,12.26,0.58l64.08-38.11C192.39,298.57,196.83,297.39,201.28,297.39z M185.28,68.1L185.28,68.1L185.28,68.1z"
		/>
</g>
</svg>
